<?xml version="1.0" encoding="UTF-8" standalone="no"?><!DOCTYPE svg PUBLIC "-//W3C//DTD SVG 1.1//EN" "http://www.w3.org/Graphics/SVG/1.1/DTD/svg11.dtd"><svg width="100%" height="100%" viewBox="0 0 4945 3498" version="1.1" xmlns="http://www.w3.org/2000/svg" xmlns:xlink="http://www.w3.org/1999/xlink" xml:space="preserve" xmlns:serif="http://www.serif.com/" style="fill-rule:evenodd;clip-rule:evenodd;stroke-linejoin:round;stroke-miterlimit:2;"><g id="Background"><path d="M2476.036,599.568c19.492,-32.08 23.722,-68.884 108.666,-147.982c79.454,-73.986 183.154,-108.418 200.686,-114.239c55.644,-18.476 54.802,-20.94 112.372,-32.608c48.015,-9.732 78.935,-21.035 145.041,-31.768c66.017,-10.719 64.716,-15.927 155.73,-33.6c10.803,-2.098 53.407,-10.37 133.407,-33.522c49.864,-14.43 170.236,-67.855 216.935,-172.23c11.709,-26.17 8.507,-27.677 12.158,-31.186c0.842,-0.809 12.365,-1.648 13.259,-0.978c4.214,3.162 4.279,16.86 4.286,18.369c0.552,117.593 15.484,169.727 -19.763,301.651c-12.366,46.284 -12.004,54.194 -46.691,133.249c-22.196,50.587 -74.148,128.642 -126.925,185.771c-6.703,7.255 -76.302,98.964 -311.204,220.535c-62.956,32.582 -270.426,107.092 -360.954,219.56c-116.786,145.091 -39.872,359.456 -23.356,419.315c12.353,44.772 46.371,103.354 38.653,121.571c-3.883,9.164 -32.353,20.299 -109.796,65.209c-46.703,27.084 -90.09,35.399 -98.345,36.981c-22.427,4.298 -22.348,2.76 -45.243,2.41c-0.519,-2.413 -5.08,-8.973 -5.684,-26.441c-0.398,-11.524 -0.087,-273.689 0,-277.001c1.661,-63.2 -0.168,-154.104 -0.062,-177.803c0.871,-194.743 -0.67,-194.585 -0.393,-211.503c4.441,-271.268 -0.43,-271.155 2.007,-389.181c0.397,-19.241 -3.736,-18.493 -3.668,-20.129c0.103,-2.47 3.912,-3.43 4.623,-5.797c1.216,-4.046 -0.021,-8.522 0.919,-12.641c0.51,-2.234 2.829,-3.776 3.339,-6.01Z" style="fill:#93d8e3;"/><path d="M2476.036,599.568c-0.51,2.234 -2.829,3.776 -3.339,6.01c-0.94,4.119 0.297,8.595 -0.919,12.641c-0.712,2.367 -4.521,3.328 -4.623,5.797c-0.068,1.635 4.065,0.888 3.668,20.129c-2.437,118.026 2.433,117.914 -2.007,389.181c-0.277,16.918 1.264,16.759 0.393,211.503c-0.106,23.699 1.723,114.603 0.062,177.803c-0.087,3.312 -0.398,265.477 -0,277.001c0.603,17.468 5.165,24.028 5.684,26.441c-49.622,-2.053 -102.277,-3.231 -242.901,-94.005c-17.179,-11.09 -25.371,-18.105 6.193,-88.522c5.603,-12.501 46.958,-137.333 52.063,-209.444c6.083,-85.927 20.912,-221.262 -140.053,-330.464c-9.215,-6.252 -68.135,-46.225 -120.255,-70.109c-28.512,-13.066 -27.379,-14.938 -67.191,-32.328c-51.473,-22.484 -176.879,-84.055 -220.746,-114.812c-29.458,-20.654 -116.029,-67.34 -214.97,-185.728c-131.139,-156.913 -147.695,-310.912 -148.001,-312.222c-14.263,-61.138 -15.144,-61.05 -17.126,-123.675c-2.127,-67.203 5.225,-90.039 4.327,-133.081c-0.059,-2.819 -0.732,-35.07 16.023,-31.392c0.481,0.106 15.143,52.975 57.176,98.365c70.176,75.782 152.158,108.256 345.476,146.035c62.205,12.157 61.115,16.309 123.425,28.438c89.02,17.328 88.577,18.631 177.018,38.687c7.406,1.679 24.341,5.52 90.545,28.496c65.7,22.801 134.935,69.012 152.516,83.451c108.095,88.777 129.002,160.738 129.449,161.505c3.849,6.601 7.482,9.469 8.304,10.117c4.368,3.448 5.504,0.781 9.81,4.181Z" style="fill:#72bec7;"/><path d="M1485.624,2607.562c12.108,-1.578 71.86,-14.086 165.496,-0.336c202.329,29.71 353.057,198.857 370.498,384.975c21.081,224.966 -105.705,352.673 -111.576,358.788c-80.432,83.771 -149.062,106.924 -180.323,120.205c-76.944,32.689 -224.166,35.862 -313.28,4.258c-105.541,-37.431 -167.861,-99.905 -179.828,-111.901c-150.723,-151.095 -163.16,-402.883 -43.955,-573.119c4.363,-6.231 29.81,-42.572 62.482,-71.68c18.919,-16.856 70.301,-53.027 84.845,-60.41c65.843,-33.424 66.619,-31.997 145.642,-50.779Zm-1.945,135.845c-61.455,19.815 -60.207,22.87 -99.327,48.35c-9.42,6.136 -67.661,54.241 -91.701,121.715c-5.59,15.691 -56.728,130.243 1.934,279.818c19.165,48.867 77.134,118.938 144.874,146.163c12.573,5.053 75.204,30.224 167.903,22.278c41.44,-3.552 77.446,-13.405 133.48,-46.411c28.885,-17.014 72.183,-70.084 83.784,-92.142c4.39,-8.348 30.952,-51.32 40.691,-130.248c9.144,-74.101 -5.858,-183.954 -56.952,-245.775c-15.605,-18.881 -115.619,-155.649 -324.687,-103.748Z" style="fill:#86cedd;"/><path d="M2608.805,2617.738c33.296,4.726 50.374,3.139 101.099,28.783c33.108,16.738 104.956,68.756 114.488,156.26c14.476,132.895 -56.515,185.607 -79.521,203.649c-14.432,11.318 -38.055,18.602 -32.269,29.214c9.048,16.594 77.497,25.869 121.6,122.8c42.975,94.453 12.931,249.576 -124.209,303.021c-94.809,36.949 -97.759,28.084 -490.372,28.426c-29.528,0.026 -38.018,0.365 -38.725,-29.211c-0.954,-39.963 -0.823,-656.067 -0.811,-713.116c0.026,-122.429 -0.335,-124.497 8.281,-130.417c5.999,-4.121 6.703,-4.835 209.326,-4.158c130.702,0.437 130.728,-2.877 211.112,4.748Zm-9.153,125.076c-38.804,-11.067 -39.237,-10.118 -146.297,-10.17c-112.604,-0.055 -118.631,-1.297 -122.81,14.821c-2.002,7.721 -1.344,174.012 -0.607,200.511c0.758,27.257 6.958,29.039 34.292,29.015c200.278,-0.176 201.605,2.755 245.911,-15.951c49.319,-20.823 73.591,-84.404 61.921,-134.678c-16.615,-71.574 -71.728,-83.266 -72.41,-83.549Zm-135.266,355.884c-8.012,-0.191 -11.73,-0.28 -100.173,0.361c-41.493,0.301 -34.651,17.652 -34.689,49.274c-0.233,195.028 -3.128,208.564 10.932,214.231c12.584,5.073 224.165,4.789 257.615,-2.737c139.404,-31.364 113.87,-191.345 44.137,-233.189c-55.589,-33.357 -103.696,-30.048 -177.822,-27.941Z" style="fill:#85cedc;"/><path d="M150.884,2904.332c-0.42,44.463 7.045,44.264 2.943,555.8c-0.199,24.809 -2.336,30.191 -27.26,30.343c-7.994,0.049 -83.248,0.508 -99.929,-0.805c-25.288,-1.991 -26.23,-16.506 -26.627,-29.202c-0.057,-1.815 0.111,-625.071 0.126,-679.425c0.042,-156.37 -1.925,-162.927 14.892,-167.816c9.461,-2.751 131.275,-1.609 134.038,-1.234c16.121,2.188 21.048,5.644 44.546,57.553c47.831,105.663 162.128,347.582 170.308,365.872c36.868,82.434 61.021,124.067 101.035,222.026c5.423,13.276 4.53,17.703 18.689,16.035c9.619,-1.133 7.397,-4.433 10.51,-13.706c2.792,-8.316 6.234,-18.567 43.839,-100.508c67.297,-146.64 70.858,-154.138 77.186,-167.463c3.406,-7.173 34.056,-71.714 42.128,-89.875c31.758,-71.447 32.889,-70.906 35.439,-77.205c12.17,-30.062 51.975,-107.175 78.28,-166.765c20.888,-47.319 27.982,-46.249 68.064,-46.334c90.156,-0.19 109.56,-2.254 114.966,11.526c2.762,7.039 2.762,32.546 2.762,35.385c0.031,185.5 0.062,371.001 0.093,556.501c-0.491,225.263 0.269,225.173 0.101,244.753c-0.173,20.165 1.109,24.415 -18.353,30.157c-2.129,0.628 -30.168,0.886 -32.793,0.91c-91.325,0.839 -91.116,-2.892 -92.131,-3.6c-15.031,-10.484 -10.512,-14.663 -10.778,-149.572c-0.079,-40.24 -0.301,-112.61 -0.195,-167.17c0.4,-206.592 1.59,-206.32 4.356,-245.14c1.198,-16.817 3.874,-25.005 -12.772,-22.423c-9.928,1.54 -8.19,28.95 -38.906,92.483c-15.666,32.404 -94.99,209.781 -100.956,222.004c-6.364,13.04 -29.467,67.701 -72.73,164.071c-43.175,96.174 -40.18,107.986 -76.625,108.345c-57.551,0.567 -70.473,-0.746 -78.326,-7.031c-19.314,-15.456 -71.576,-156.524 -106.902,-225.557c-19.319,-37.753 -102.509,-227.425 -108.704,-240.086c-41.095,-83.991 -43.342,-120.193 -45.553,-120.197c-3.297,-0.005 -2.401,8.091 -5.698,8.085c-3.022,-0.245 -6.044,-0.489 -9.066,-0.734Z" style="fill:#87cedc;"/><path d="M3677.106,2019.512c26.154,-5.396 69.349,-17.473 101.785,-9.538c67.897,16.61 67.979,86.195 51.29,112.133c-33.041,51.351 -87.467,33.302 -129.811,47.043c-59.626,19.348 -74.693,50.759 -202.537,106.315c-16.296,7.082 -85.742,37.26 -221.168,20.406c-108.279,-13.475 -206.678,-94.997 -279.097,-124.041c-45.735,-18.342 -125.835,-12.405 -155.437,-6.981c-40.334,7.391 -112.562,63.605 -186.998,95.944c-50.075,21.755 -71.691,33.78 -124.151,37.68c-150.904,11.219 -207.966,-25.808 -221.585,-31.386c-88.923,-36.424 -151.832,-99.973 -223.87,-105.682c-187.102,-14.827 -170.821,54.628 -354.6,121.535c-80.889,29.448 -203.406,14.761 -245.107,4.289c-34.16,-8.579 -121.453,-53.804 -147.742,-70.689c-104.462,-67.096 -144.371,-49.939 -176.353,-58c-78.209,-19.712 -87.047,-163.444 56.258,-149.377c84.131,8.259 152.842,52.411 153.003,52.498c23.125,12.468 153.477,109.793 269.824,85.395c88.566,-18.573 118.116,-34.425 158.394,-64.331c23.561,-17.494 29.471,-19.164 54.602,-33.3c36.613,-20.594 138.818,-42.231 154.824,-43.159c139.878,-8.109 203.782,40.904 313.641,102.106c85.394,47.573 164.834,45.631 197.896,38.094c83.421,-19.019 103.155,-37.009 221.159,-102.96c48.624,-27.175 162.956,-51.04 235.533,-31.595c63.54,17.024 65.081,13.105 123.153,43.612c85.031,44.67 81.186,51.654 121.751,68.033c123.539,49.882 188.751,17.022 234.381,3.173c40.812,-12.386 94.272,-48.534 118.746,-62.638c65.782,-37.908 69.325,-36.58 102.217,-44.581Z" style="fill:#26818d;"/><path d="M2667.37,1749.562c27.365,-17.3 27.406,-16.926 55.247,-33.705c20.381,-12.283 89.658,-39.662 120.964,-43.595c158.518,-19.915 244.652,37.758 279.156,59.891c41.973,26.925 42.509,25.618 86.073,49.867c40.797,22.709 119.44,41.286 168.81,31.686c189.851,-36.917 187.633,-127.487 356.323,-143.005c126.049,-11.595 106.201,90.964 97.933,107.553c-30.531,61.261 -91.43,39.612 -142.426,57.602c-84.438,29.787 -70.936,57.821 -211.683,110.665c-51.178,19.215 -166.4,26.35 -233.378,8.294c-7.314,-1.972 -52.329,-14.107 -88.829,-32.813c-123.799,-63.446 -115.727,-84.708 -201.438,-96.838c-130.84,-18.517 -194.908,42.653 -225.279,60.391c-125.793,73.469 -188.751,89.396 -320.56,75.708c-63.139,-6.557 -162.341,-57.975 -186.591,-74.28c-82.457,-55.44 -107.454,-59.533 -146.804,-64.053c-124.354,-14.285 -200.942,53.382 -215.04,62.144c-111.201,69.116 -180.605,76.253 -197.503,77.991c-187.241,19.256 -298.425,-68.255 -329.565,-89.074c-78.252,-52.316 -93.303,-42.128 -148.637,-49.842c-93.169,-12.99 -93.84,-106.065 -42.131,-141.575c35.183,-24.161 141.078,-14.233 229.784,43.346c35.795,23.235 35.504,23.431 38.636,25.399c170.007,106.85 285.147,55.739 344.614,21.912c113.865,-64.772 111.194,-71.47 186.762,-92.427c102.117,-28.32 194.581,-1.628 199.164,-0.055c80.579,27.661 77.764,33.492 112.608,52.676c10.528,5.797 135.448,98.568 255.632,80.596c83.266,-12.452 145.471,-56.28 158.155,-64.46Z" style="fill:#71bacc;"/><path d="M4427.747,2647.352c0.26,-2.114 -3.8,-30.964 18.116,-35.019c12.039,-2.228 348.496,-0.571 378.799,-0.422c94.981,0.468 110.543,-4.987 118.137,14.142c1.684,4.243 0.671,70.702 0.577,76.85c-0.302,19.8 -0.274,23.368 -19.291,28.281c-6.389,1.651 -183.643,1.357 -199.613,1.33c-132.223,-0.219 -139.32,-2.26 -143.432,15.4c-3.63,15.586 -1.973,15.8 -0.986,200.038c0.18,33.555 10.522,32.812 44.191,32.548c66.89,-0.524 204.851,-0.491 222.664,-0.487c41.198,0.01 57.524,-6.626 57.702,34.721c0.324,75.229 -0.696,76.468 -8.295,83.325c-8.696,7.848 -33.28,6.867 -60.545,7.103c-215.141,1.86 -215.071,-1.646 -233.754,-0.847c-21.717,0.929 -22.003,21.016 -22.076,21.779c-1.815,18.939 -0.654,174.106 -0.541,189.245c0.279,37.327 -3.513,51.182 33.76,50.28c14.256,-0.345 30.729,-0.744 178.25,0.306c139.288,0.991 140.248,-0.047 145.15,4.266c7.819,6.879 8.024,14.236 8,89.884c-0.002,6.96 2.895,27.603 -20.157,30.206c-11.401,1.287 -429.754,0.448 -467.124,0.373c-8.251,-0.017 -27.721,2.614 -30.231,-19.919c-0.275,-2.473 0.62,-799.206 0.698,-823.384Z" style="fill:#84cbda;"/><path d="M3466.256,2702.927c36.705,-66.968 29.54,-90.179 78.108,-90.331c8.927,-0.028 110.15,-0.343 111.594,-0.211c30.9,2.811 12.329,17.678 -1.536,45.429c-7.466,14.942 -172.303,317.063 -203.473,376.964c-68.086,130.843 -69.898,129.97 -73.979,146.855c-5.296,21.915 -1.582,217.691 -2.457,278.311c-0.456,31.595 -10.177,30.404 -41.741,30.742c-100.17,1.075 -100.285,-1.946 -102.957,-4.006c-13.598,-10.481 -9.784,-14.033 -9.988,-149.085c-0.236,-155.918 4.677,-158.447 -19.213,-201.209c-29.042,-51.984 -28.035,-52.449 -30.568,-56.958c-60.516,-107.706 -58.443,-108.699 -63.82,-117.986c-48.089,-83.06 -86.155,-160.862 -110.054,-200.996c-16.46,-27.642 -16.167,-32.085 -23.022,-44.471c-35.628,-64.371 -34.726,-64.801 -38.209,-70.159c-1.475,-2.269 -20.314,-31.249 8.106,-32.848c18.522,-1.042 102.557,0.144 111.475,0.27c22.817,0.322 30.91,0.744 57.548,55.507c30.15,61.983 31.244,61.263 33.803,66.668c42.517,89.792 46.24,87.699 67.601,133.187c20.329,43.291 22.106,42.336 25.133,48.444c30.689,61.922 31.319,61.473 33.962,66.859c17.306,35.273 13.61,41.566 26.88,41.414c13.522,-0.155 7.796,-7.923 29.443,-46.125c9.002,-15.887 15.438,-33.354 33.136,-66.697c30.151,-56.806 27.764,-57.865 30.381,-62.794c51.717,-97.403 52.142,-107.358 73.849,-146.773Z" style="fill:#8ed3de;"/><path d="M3797.078,2647.237c2.022,-19.2 -2.333,-21.371 7.198,-28.953c5.965,-4.745 27.15,-4.853 29.546,-4.865c99.863,-0.509 102.587,-1.128 109.026,3.662c13.307,9.899 6.541,14.303 7.348,364.277c0.773,334.943 -1.919,351.293 1.383,368.782c0.338,1.793 2.213,11.721 16.536,15.701c3.088,0.858 104.419,-1.47 132.95,-0.795c163.384,3.867 175.552,-4.83 181.402,16.154c2.05,7.352 1.383,72.565 1.319,78.875c-0.304,29.723 -8.356,30.292 -37.939,30.149c-159.265,-0.768 -403.194,0.818 -422.875,0.048c-2.474,-0.097 -21.164,-0.828 -24.638,-18.728c-1.717,-8.85 -0.915,-733.291 -1.257,-824.306Z" style="fill:#7dc6d8;"/></g></svg>